<?xml version="1.0" encoding="UTF-8"?>
<svg id="Calque_2" data-name="Calque 2" xmlns="http://www.w3.org/2000/svg" viewBox="0 0 337.94 106.98">
  <defs>
    <style>
      .cls-1 {
        fill: #fff;
      }
    </style>
  </defs>
  <g id="_école" data-name="école">
    <g>
      <g id="Calque_2-2" data-name="Calque 2">
        <g id="Calque_1-2" data-name="Calque 1-2">
          <path class="cls-1" d="M105.91,1.08v104.83H1.08V1.08h104.83M106.98,0H0v106.98h106.98V0Z"/>
          <path class="cls-1" d="M56.07,72.25s1.08.19-.05.68c-5.61,2.02-11.52,3.05-17.48,3.05-9.55,0-20.79-4.12-22.84-15.86-1.95-11.02,7.6-27.58,30.25-36.73,0,0,17.85-7.21,32.67-2.19,0,0,13.48,4.11,12.02,18.45,0,0-.54,12.71-15.59,20.73,0,0-6.36,3.68-6.09-.44l1.49-12.4s.91-2.83-2.03-1.39c0,0-1.34.75-1.08-.32,0,0,0-.16.7-.43l5.24-1.49s1.49-.59,1.18,1.65l-1.44,11.86s-.64,2.76,1.28,1.92h0c6.15-1.92,10.69-9.35,10.69-9.35,6.62-11.53,1.71-19.01,1.71-19.01-6.09-10.15-20.94-9.7-20.94-9.7-21.68,0-34.6,12.94-34.6,12.94-16.98,14.85-11.65,27.34-11.65,27.34,7.38,19.1,36.28,10.69,36.28,10.69h.3Z"/>
          <path class="cls-1" d="M28.43,53.69c-.03-2.54,1.81-8.22,4.91-8.22,1.21,0,1.45.98,1.45,1.96,0,.69-.08,1.37-.24,2.04l-6.12,4.23ZM37.41,57.69c-1.44,1.25-3.44,2.9-5.44,2.9-3.02,0-3.57-3.13-3.54-5.52,3.93-2.7,7.61-4.97,10.9-7.75.06-.3.1-.6.12-.91,0-.11-.04-.23-.2-.23-.32,0,0,.19-1.41,1.08v-.73c0-1.91-1.29-2.33-3.01-2.33-6.25.02-10.66,5.74-10.66,11.66,0,3.72,1.57,6.47,5.64,6.47,3.13-.07,6.09-1.46,8.15-3.83l-.55-.8Z"/>
          <path class="cls-1" d="M43.47,46.03c2.09-1.06,4.35-1.73,6.67-1.98.43,0,.59.07.59.77,0,1.48-.39,3.35-.66,6.65l.08.08c1.33-3.13,4-7.49,7.47-7.49,1.98,0,2.57,1.98,2.57,3.62s-1.13,10.1-1.13,10.88c0,.27,0,1.21.47,1.21s2.11-.86,2.66-1.14l.32.9c-1.53,1.28-5.21,2.42-6.62,2.42-.82,0-.82-1.56-.82-2.03,0-2.57,1.37-8.77,1.39-11.76,0-.67-.2-1.38-1.08-1.38-1.56,0-2.93,2.29-3.52,3.39-1.96,3.56-2.31,5.63-3.13,11.32h-3.77c.62-4.65,1.8-12.21,1.8-14.02,0-.71,0-1.33-.54-1.33s-1.8.59-2.43.86l-.31-.97Z"/>
          <path class="cls-1" d="M70.87,39.61c.07-1.47,1.23-2.65,2.7-2.74.89,0,1.62.72,1.62,1.62,0,.02,0,.05,0,.07,0,1.33-1.17,2.74-2.54,2.74-.89.09-1.68-.56-1.77-1.45,0-.08,0-.16,0-.24Z"/>
          <rect class="cls-1" x="21.05" y="89.95" width="65.11" height="2.14"/>
        </g>
      </g>
      <g>
        <g>
          <path class="cls-1" d="M148.38,47.7h-14.8v-25.7h14.8v4.46h-9.35v5.64h8.7v4.46h-8.7v6.63h9.35v4.5ZM137.79,19.94v-.47c2.02-2.34,3.39-4.11,4.13-5.29h6.01v.37c-.61.61-1.65,1.51-3.12,2.72s-2.62,2.09-3.45,2.68h-3.57Z"/>
          <path class="cls-1" d="M161.3,48.05c-6.12,0-9.18-3.36-9.18-10.07,0-3.34.83-5.89,2.5-7.66s4.05-2.65,7.15-2.65c2.27,0,4.31.45,6.12,1.34l-1.58,4.15c-.84-.34-1.63-.62-2.36-.83s-1.45-.33-2.18-.33c-2.79,0-4.18,1.98-4.18,5.94s1.39,5.77,4.18,5.77c1.03,0,1.99-.14,2.87-.41s1.76-.71,2.64-1.29v4.59c-.87.55-1.74.93-2.63,1.14s-2,.32-3.35.32Z"/>
          <path class="cls-1" d="M189.69,37.84c0,3.2-.84,5.7-2.53,7.51s-4.04,2.71-7.05,2.71c-1.89,0-3.55-.41-4.99-1.24s-2.55-2.01-3.32-3.56-1.16-3.35-1.16-5.41c0-3.21.84-5.71,2.51-7.49s4.03-2.67,7.07-2.67c1.89,0,3.55.41,4.99,1.23s2.55,2,3.32,3.53,1.16,3.33,1.16,5.4ZM176.1,37.84c0,1.95.32,3.42.96,4.41s1.68,1.49,3.12,1.49,2.46-.5,3.08-1.49.94-2.46.94-4.42-.32-3.4-.95-4.38-1.67-1.46-3.11-1.46-2.46.48-3.09,1.45-.95,2.43-.95,4.39Z"/>
          <path class="cls-1" d="M199.48,47.7h-5.36v-27.35h5.36v27.35Z"/>
          <path class="cls-1" d="M214,48.05c-3.16,0-5.64-.87-7.42-2.62s-2.67-4.22-2.67-7.42.82-5.84,2.47-7.64,3.92-2.7,6.83-2.7,4.94.79,6.49,2.37,2.32,3.77,2.32,6.56v2.6h-12.67c.06,1.52.51,2.71,1.35,3.57s2.03,1.28,3.55,1.28c1.18,0,2.3-.12,3.36-.37s2.16-.64,3.3-1.18v4.15c-.94.47-1.94.82-3.01,1.05s-2.37.34-3.9.34ZM213.24,31.49c-1.14,0-2.03.36-2.67,1.08s-1.01,1.74-1.11,3.07h7.52c-.02-1.32-.37-2.35-1.04-3.07s-1.57-1.08-2.71-1.08Z"/>
        </g>
        <g>
          <path class="cls-1" d="M133.98,92.87v-25.7h1.79v25.7h-1.79Z"/>
          <path class="cls-1" d="M155.94,92.87v-12.39c0-1.92-.4-3.32-1.21-4.19s-2.06-1.31-3.76-1.31c-2.29,0-3.96.58-5.02,1.73s-1.59,3.03-1.59,5.62v10.55h-1.74v-19.11h1.48l.33,2.62h.11c1.24-1.99,3.45-2.99,6.63-2.99,4.34,0,6.5,2.33,6.5,6.98v12.5h-1.72Z"/>
          <path class="cls-1" d="M170.95,75.27h-4.5v17.6h-1.74v-17.6h-3.55v-1.02l3.55-.65v-1.48c0-2.34.43-4.06,1.29-5.16s2.27-1.64,4.23-1.64c1.05,0,2.11.16,3.16.47l-.4,1.51c-.94-.29-1.87-.44-2.79-.44-1.36,0-2.32.4-2.89,1.2s-.85,2.11-.85,3.91v1.78h4.5v1.51Z"/>
          <path class="cls-1" d="M190.44,83.29c0,3.12-.76,5.55-2.27,7.3s-3.6,2.63-6.26,2.63c-1.68,0-3.15-.4-4.43-1.21s-2.26-1.97-2.94-3.48-1.02-3.26-1.02-5.24c0-3.12.76-5.55,2.27-7.29s3.59-2.61,6.22-2.61,4.68.88,6.18,2.65,2.24,4.18,2.24,7.25ZM175.36,83.29c0,2.62.58,4.67,1.73,6.14s2.79,2.21,4.9,2.21,3.74-.74,4.9-2.21,1.73-3.52,1.73-6.14-.58-4.68-1.75-6.13-2.8-2.18-4.91-2.18-3.74.72-4.88,2.17-1.71,3.5-1.71,6.14Z"/>
          <path class="cls-1" d="M203.26,73.39c.81,0,1.68.08,2.6.25l-.33,1.67c-.8-.2-1.62-.3-2.48-.3-1.63,0-2.96.69-4.01,2.07s-1.56,3.13-1.56,5.24v10.55h-1.74v-19.11h1.48l.18,3.45h.12c.79-1.41,1.62-2.39,2.51-2.96s1.97-.85,3.23-.85Z"/>
          <path class="cls-1" d="M233.61,92.87v-12.53c0-1.86-.36-3.22-1.09-4.08s-1.84-1.28-3.34-1.28c-1.96,0-3.4.54-4.34,1.62s-1.41,2.77-1.41,5.08v11.2h-1.78v-13.06c0-3.22-1.48-4.83-4.43-4.83-2,0-3.46.58-4.38,1.75s-1.37,3.03-1.37,5.6v10.55h-1.74v-19.11h1.44l.37,2.62h.11c.53-.95,1.28-1.68,2.25-2.21s2.04-.78,3.22-.78c3.01,0,4.95,1.13,5.8,3.39h.07c.62-1.09,1.46-1.93,2.5-2.51s2.24-.88,3.58-.88c2.09,0,3.65.56,4.69,1.67s1.56,2.88,1.56,5.31v12.5h-1.72Z"/>
          <path class="cls-1" d="M253.12,92.87l-.44-3.02h-.14c-.96,1.23-1.95,2.1-2.96,2.61s-2.21.76-3.59.76c-1.88,0-3.33-.48-4.38-1.44s-1.56-2.29-1.56-3.99c0-1.86.78-3.31,2.33-4.34s3.8-1.58,6.74-1.63l3.64-.11v-1.27c0-1.82-.37-3.19-1.11-4.11s-1.93-1.39-3.57-1.39c-1.77,0-3.6.49-5.5,1.48l-.65-1.51c2.1-.98,4.17-1.48,6.22-1.48s3.67.54,4.7,1.63,1.56,2.79,1.56,5.1v12.71h-1.28ZM246.09,91.64c2.04,0,3.65-.58,4.83-1.75s1.77-2.79,1.77-4.86v-1.88l-3.34.14c-2.68.13-4.6.55-5.74,1.26s-1.71,1.81-1.71,3.31c0,1.2.37,2.12,1.1,2.79s1.77.99,3.1.99Z"/>
          <path class="cls-1" d="M265.64,91.67c1.1,0,2.06-.09,2.88-.28v1.41c-.84.28-1.82.42-2.92.42-1.69,0-2.93-.45-3.74-1.35s-1.2-2.32-1.2-4.25v-12.34h-2.83v-1.02l2.83-.79.88-4.32h.9v4.62h5.61v1.51h-5.61v12.09c0,1.46.26,2.55.77,3.25s1.32,1.05,2.43,1.05Z"/>
          <path class="cls-1" d="M272.41,68.45c0-1.12.37-1.69,1.11-1.69.36,0,.65.15.85.44s.31.71.31,1.25-.1.94-.31,1.25-.49.46-.85.46c-.74,0-1.11-.57-1.11-1.71ZM274.39,92.87h-1.74v-19.11h1.74v19.11Z"/>
          <path class="cls-1" d="M287.6,93.22c-2.51,0-4.45-.83-5.84-2.5s-2.07-4.07-2.07-7.21.69-5.72,2.07-7.48,3.36-2.65,5.94-2.65c2.77,0,4.83,1.02,6.21,3.06h.11l.32-2.69h1.48v27.76h-1.72v-7.28c0-1.43.04-2.88.11-4.36h-.11c-1.38,2.23-3.54,3.34-6.49,3.34ZM287.63,91.67c2.32,0,3.98-.64,4.97-1.92s1.49-3.42,1.49-6.43v-.21c0-2.87-.5-4.95-1.49-6.22s-2.58-1.92-4.76-1.92c-2.06,0-3.63.73-4.7,2.18s-1.61,3.59-1.61,6.4.52,4.71,1.57,6.07,2.56,2.05,4.54,2.05Z"/>
          <path class="cls-1" d="M303.73,73.76v12.38c0,1.92.4,3.32,1.21,4.19s2.06,1.31,3.76,1.31c2.27,0,3.95-.57,5.02-1.72s1.61-3.02,1.61-5.61v-10.55h1.72v19.11h-1.48l-.32-2.64h-.11c-1.24,1.99-3.45,2.99-6.63,2.99-4.35,0-6.52-2.33-6.52-6.98v-12.48h1.72Z"/>
          <path class="cls-1" d="M331.17,93.22c-2.78,0-4.94-.86-6.5-2.57s-2.33-4.11-2.33-7.19.75-5.49,2.25-7.32,3.52-2.75,6.06-2.75c2.25,0,4.03.79,5.33,2.36s1.95,3.7,1.95,6.4v1.41h-13.76c.02,2.62.64,4.63,1.84,6.01s2.92,2.07,5.16,2.07c1.09,0,2.05-.08,2.87-.23s1.87-.48,3.14-.98v1.58c-1.08.47-2.07.79-2.99.96s-1.92.25-3.02.25ZM330.66,74.94c-1.84,0-3.32.61-4.43,1.82s-1.76,2.96-1.95,5.25h11.81c0-2.21-.48-3.95-1.44-5.19s-2.29-1.87-3.99-1.87Z"/>
        </g>
      </g>
    </g>
  </g>
</svg>